<?xml version="1.0" standalone="no"?>
<!DOCTYPE svg PUBLIC "-//W3C//DTD SVG 20010904//EN"
 "http://www.w3.org/TR/2001/REC-SVG-20010904/DTD/svg10.dtd">
<svg version="1.0" xmlns="http://www.w3.org/2000/svg"
 width="512.000000pt" height="512.000000pt" viewBox="0 0 512.000000 512.000000"
 preserveAspectRatio="xMidYMid meet">

<g transform="translate(0.000000,512.000000) scale(0.100000,-0.100000)"
fill="#ffffff" stroke="none">
<path d="M2100 5104 c-88 -32 -162 -99 -195 -177 -7 -17 -36 -135 -65 -262
-28 -126 -52 -230 -53 -231 -111 -49 -263 -132 -348 -189 -61 -41 -116 -75
-123 -75 -6 0 -112 32 -235 70 -249 79 -300 85 -395 49 -98 -36 -128 -75 -327
-419 -251 -436 -234 -399 -234 -500 0 -136 18 -165 241 -372 l185 -171 -8 -61
c-9 -79 -9 -333 0 -412 l8 -61 -183 -170 c-210 -194 -237 -233 -245 -350 -4
-53 -1 -80 15 -121 11 -29 105 -200 209 -380 208 -361 241 -405 336 -441 98
-36 147 -30 398 49 123 38 229 70 235 70 7 0 62 -34 123 -75 85 -57 237 -140
348 -189 1 -1 25 -105 53 -231 28 -127 60 -249 70 -272 24 -55 92 -122 155
-153 l50 -25 445 0 445 0 50 25 c63 31 131 98 155 153 10 23 42 146 70 272 28
127 56 232 61 234 59 21 248 124 338 185 62 42 118 76 125 76 6 0 112 -31 235
-70 249 -79 300 -85 395 -49 98 36 128 75 327 419 251 436 234 399 234 501 0
135 -20 166 -240 370 l-180 167 5 94 c3 51 5 131 5 178 0 47 -2 127 -5 178
l-5 94 180 167 c207 192 234 231 242 348 7 95 -6 124 -230 513 -205 355 -235
393 -333 429 -95 36 -146 30 -395 -49 -123 -38 -229 -70 -235 -70 -7 0 -63 34
-125 76 -90 61 -279 164 -338 185 -5 2 -33 108 -61 234 -28 127 -60 249 -70
272 -24 55 -92 122 -155 153 l-50 25 -430 2 c-372 2 -436 0 -475 -13z m570
-1484 c124 -14 229 -44 335 -94 238 -112 409 -283 520 -519 192 -407 102 -894
-223 -1209 -322 -311 -790 -392 -1188 -204 -121 58 -203 114 -296 204 -325
315 -415 802 -223 1209 176 372 538 609 950 622 22 0 78 -4 125 -9z"/>
</g>
</svg>
