<?xml version="1.0" standalone="no"?>
<!DOCTYPE svg PUBLIC "-//W3C//DTD SVG 20010904//EN"
 "http://www.w3.org/TR/2001/REC-SVG-20010904/DTD/svg10.dtd">
<svg version="1.0" xmlns="http://www.w3.org/2000/svg"
 width="512.000000pt" height="512.000000pt" viewBox="0 0 512.000000 512.000000"
 preserveAspectRatio="xMidYMid meet">

<g transform="translate(0.000000,512.000000) scale(0.100000,-0.100000)"
fill="#4282bf" stroke="none">
<path d="M1540 4979 c-508 -65 -942 -351 -1194 -785 -503 -868 -85 -1985 864
-2307 191 -65 289 -81 515 -81 170 0 216 3 305 23 222 47 446 142 604 256 l74
52 178 -178 179 -179 0 -112 c0 -196 -40 -144 654 -841 328 -329 616 -611 641
-628 57 -38 158 -69 225 -69 68 0 168 31 229 71 139 93 207 284 158 445 -12
38 -35 89 -51 114 -16 25 -299 313 -628 641 -697 694 -645 654 -841 654 l-112
0 -179 179 -178 178 52 74 c114 158 209 382 256 604 20 89 23 135 23 305 0
224 -15 320 -79 511 -168 506 -595 901 -1117 1035 -174 44 -411 60 -578 38z
m417 -463 c146 -32 279 -87 403 -167 84 -55 264 -235 319 -319 241 -372 255
-846 33 -1215 -340 -568 -1066 -735 -1622 -374 -84 55 -264 235 -319 319 -81
126 -143 277 -172 425 -8 40 -14 131 -14 210 0 79 6 170 14 210 47 236 157
440 328 606 171 167 377 273 593 309 41 6 82 13 90 15 36 9 281 -5 347 -19z"/>
</g>
</svg>
