<?xml version="1.0" standalone="no"?>
<!DOCTYPE svg PUBLIC "-//W3C//DTD SVG 20010904//EN"
 "http://www.w3.org/TR/2001/REC-SVG-20010904/DTD/svg10.dtd">
<svg version="1.0" xmlns="http://www.w3.org/2000/svg"
 width="96.000000pt" height="96.000000pt" viewBox="0 0 96.000000 96.000000"
 preserveAspectRatio="xMidYMid meet">

<g transform="translate(0.000000,96.000000) scale(0.100000,-0.100000)"
fill="#000000" stroke="none">
<path d="M366 944 c-172 -41 -319 -191 -355 -362 -57 -269 122 -527 397 -574
237 -40 474 117 537 357 28 111 14 228 -41 337 -52 102 -189 218 -258 218 -25
0 -21 -4 31 -30 114 -57 191 -145 234 -266 17 -48 20 -77 17 -160 -3 -93 -6
-107 -41 -176 -92 -187 -298 -289 -499 -247 -136 29 -253 121 -315 247 -38 75
-38 77 -38 196 0 115 1 124 32 189 60 125 209 243 317 250 67 4 67 -7 -14
-239 -39 -115 -77 -215 -82 -221 -6 -7 -23 -13 -39 -13 -16 0 -29 -4 -29 -10
0 -6 50 -10 130 -10 72 0 130 -4 130 -9 0 -11 -67 -198 -81 -222 -6 -12 -20
-19 -39 -19 -17 0 -30 -4 -30 -10 0 -6 78 -10 215 -10 l215 0 27 53 c40 76 40
77 -9 25 l-44 -48 -122 0 c-72 0 -123 4 -127 10 -4 6 10 60 30 120 l37 110 48
0 c48 0 49 0 79 54 42 72 39 77 -12 22 -33 -35 -50 -46 -74 -46 l-31 0 24 76
c38 118 37 117 119 127 17 2 -26 4 -95 5 -69 0 -114 -3 -101 -7 43 -12 46 -31
17 -119 l-28 -82 -58 0 c-32 0 -62 5 -65 10 -4 6 24 103 62 217 51 154 75 213
95 234 23 22 25 28 12 33 -26 10 -116 5 -178 -10z"/>
</g>
</svg>
