<?xml version="1.0" standalone="no"?>
<!DOCTYPE svg PUBLIC "-//W3C//DTD SVG 20010904//EN"
 "http://www.w3.org/TR/2001/REC-SVG-20010904/DTD/svg10.dtd">
<svg version="1.0" xmlns="http://www.w3.org/2000/svg"
 width="512.000000pt" height="512.000000pt" viewBox="0 0 512.000000 512.000000"
 preserveAspectRatio="xMidYMid meet">

<g transform="translate(0.000000,512.000000) scale(0.100000,-0.100000)"
fill="#000000" stroke="none">
<path d="M2325 4943 c-325 -40 -579 -114 -838 -243 -674 -337 -1148 -980
-1278 -1735 -27 -152 -36 -467 -20 -627 55 -535 286 -1027 661 -1411 207 -213
393 -349 655 -477 243 -120 486 -193 765 -231 121 -17 446 -17 570 0 540 72
1014 304 1390 681 718 717 900 1806 456 2715 -118 240 -246 423 -431 614 -382
394 -871 638 -1415 706 -113 14 -430 19 -515 8z m534 -139 c140 -19 344 -69
476 -119 672 -252 1191 -817 1380 -1502 63 -228 79 -351 79 -603 0 -243 -15
-367 -69 -574 -97 -372 -306 -735 -586 -1015 -745 -746 -1916 -873 -2799 -303
-282 182 -542 448 -708 723 -217 362 -324 747 -324 1164 0 267 31 459 113 709
309 942 1210 1572 2199 1539 69 -2 176 -11 239 -19z"/>
<path d="M2482 4289 c-145 -19 -257 -74 -363 -179 -197 -194 -243 -479 -119
-726 73 -146 199 -256 353 -313 64 -23 86 -26 207 -26 121 0 143 3 207 26 154
57 283 170 354 314 92 186 91 376 -2 565 -115 232 -380 374 -637 339z m179
-133 c231 -49 398 -254 399 -486 0 -281 -220 -503 -500 -502 -226 1 -408 134
-477 349 -88 277 86 576 371 638 80 18 127 18 207 1z"/>
<path d="M2388 2829 c-320 -37 -595 -195 -785 -453 -177 -240 -304 -617 -329
-983 -8 -121 -14 -112 148 -213 376 -234 752 -350 1138 -350 285 0 537 56 823
181 192 85 453 246 463 286 9 33 -3 164 -27 313 -70 420 -256 780 -510 984
-238 190 -570 275 -921 235z m366 -134 c416 -63 714 -335 866 -792 54 -162
100 -404 100 -524 0 -36 -2 -38 -108 -102 -473 -289 -950 -386 -1410 -287
-220 47 -487 158 -700 291 -117 72 -111 60 -92 219 74 593 346 1005 759 1147
178 60 387 78 585 48z"/>
</g>
</svg>
